<svg width="736" height="246" viewBox="0 0 736 246" fill="none" xmlns="http://www.w3.org/2000/svg">
<g opacity="0.5" clip-path="url(#clip0_9_410)">
<path d="M273.058 105.64C279.819 101.383 286.651 97.2802 293.472 93.3008C307.449 85.1774 321.578 77.527 335.86 70.3496C364.33 56.0527 393.441 43.959 423.037 34.1337C452.504 24.509 482.487 17.6761 512.435 15.7635C519.916 15.3008 527.385 15.1465 534.818 15.3625C538.54 15.4704 542.251 15.6864 545.925 15.9486L551.617 16.4576L557.284 16.9974C572.402 18.5398 587.544 20.8226 602.698 23.2905C631.613 28.1182 660.432 34.3959 689.251 41.3368C679.476 49.7738 659.231 66.8637 644.461 76.0103C637.332 80.3103 629.933 83.8292 622.343 86.5296C678.107 81.3625 725.899 77.7224 771.504 75.1774C792.782 74.0206 812.079 73.2339 830.475 72.7866H833.909H837.319L842.291 72.7095H844.152H845.989C851.861 72.7095 856.268 72.617 860.29 72.617C872.635 72.617 883.886 72.8483 894.429 73.3265C888.893 72.0154 883.37 70.6581 877.834 69.3008C847.526 61.8046 817.278 53.8766 786.995 46.1645C756.711 38.4524 726.355 30.91 695.927 24.0925C665.499 17.2751 634.915 10.9512 604.211 6.40103C588.853 4.11825 573.483 2.26735 558.041 1.07969C550.32 0.493573 542.587 0 534.842 0C527.097 0 519.364 0.354756 511.642 1.04884C480.758 3.84062 450.294 11.6452 420.479 22.1954C390.701 32.9666 361.487 46.1604 333.014 61.6967C318.756 69.3882 304.679 77.5681 290.782 86.2365C281.176 92.2519 271.642 98.437 262.227 104.961L264.629 105.1C267.451 105.208 270.285 105.409 273.058 105.64Z" fill="#E2E2E2"/>
<path d="M114.855 146.067L26.3212 198.216C26.233 198.264 26.1613 198.351 26.1194 198.462C26.0774 198.572 26.0681 198.699 26.0931 198.817C26.1186 198.927 26.1708 199.024 26.242 199.094C26.3133 199.163 26.3999 199.201 26.4893 199.203L51.5377 197.815C51.6235 197.814 51.7055 197.77 51.7659 197.691C52.0901 197.383 84.8835 165.841 115.167 147.023C115.266 146.966 115.343 146.86 115.381 146.73C115.42 146.6 115.416 146.456 115.371 146.329C115.327 146.202 115.245 146.103 115.144 146.054C115.042 146.005 114.93 146.009 114.831 146.067H114.855Z" fill="#E2E2E2"/>
<path d="M746.492 191.26L702.687 197.429C686.909 199.681 670.59 202.057 654.56 204.555L623.94 209.183L532.176 223.758C510.946 227.198 490.401 230.345 471.068 233.121C464.944 234.031 460.261 234.663 455.878 235.219C450.595 235.866 445.683 236.298 440.904 236.561C431.058 237.205 421.187 236.756 411.401 235.219C402.01 233.774 392.851 230.464 384.251 225.409C380.018 222.825 375.964 219.781 372.135 216.309C368.106 212.746 364.234 208.899 360.536 204.787C357.594 201.486 354.376 198.216 351.254 195.069L348.516 192.278C344.601 188.237 340.579 184.473 336.124 180.324C327.238 172.087 319.613 165.625 312.36 160.149C325.677 175.003 341.095 192.417 356.273 210.617C359.995 215.151 363.907 219.419 367.993 223.404C372.095 227.356 376.481 230.796 381.093 233.676C390.39 239.307 400.339 242.953 410.548 244.473C417.365 245.534 424.227 246.049 431.094 246.016C437.974 246.016 444.903 245.537 451.771 244.812C458.64 244.088 465.4 243.085 471.945 242.067C492.814 238.874 513.6 235.28 533.113 231.856C576.509 224.237 619.197 216.355 655.208 209.63L766.101 188.576H765.681C759.365 189.44 752.892 190.257 746.492 191.26Z" fill="#E2E2E2"/>
<path d="M336.916 86.1287C316.623 89.7071 304.867 102.37 300.028 108.879L308.218 110.16L313.165 110.946C314.63 111.193 315.843 111.363 316.995 111.501H317.283H317.62L318.112 111.579H318.412H318.652C326.818 112.584 335.018 113.063 343.22 113.013H345.166C345.106 92.1287 337.757 86.36 337.445 86.1132C337.273 86.0338 337.085 86.0393 336.916 86.1287Z" fill="#E2E2E2"/>
<path d="M302.286 211.758C286.099 163.496 251.817 132.339 214.941 132.339C178.064 132.339 143.638 163.666 127.487 212.129C127.442 212.262 127.44 212.412 127.48 212.548C127.521 212.683 127.601 212.793 127.703 212.853C127.806 212.895 127.916 212.893 128.017 212.849C128.119 212.804 128.206 212.72 128.268 212.607C136.601 192.358 149.075 175.411 164.349 163.591C179.622 151.77 197.115 145.524 214.947 145.524C232.778 145.524 250.271 151.77 265.544 163.591C280.818 175.411 293.292 192.358 301.625 212.607C301.665 212.693 301.721 212.765 301.788 212.816C301.855 212.867 301.931 212.896 302.009 212.9C302.126 212.9 302.239 212.842 302.324 212.739C302.409 212.636 302.46 212.495 302.466 212.344C302.491 212.25 302.491 212.146 302.466 212.051C302.398 211.962 302.337 211.864 302.286 211.758Z" fill="#E2E2E2"/>
<path d="M554.102 148.072C561.607 148.519 569.352 148.967 576.917 149.784C585.659 150.524 593.428 151.419 600.645 152.576C607.681 153.625 615.979 154.967 624.06 156.91C632.466 159.023 640.007 161.121 646.875 163.28C655.196 165.887 662.485 168.571 669.234 171.486C675.982 174.401 682.863 177.825 689.287 182.977C686.943 179.885 684.355 177.115 681.566 174.709C678.238 171.834 674.759 169.258 671.155 166.997C663.914 162.454 656.376 158.738 648.628 155.892C633.102 150.264 617.19 146.571 601.113 144.864C585.044 143.044 568.908 142.384 552.781 142.889C538.648 143.244 524.095 144.308 508.352 146.098C514.356 146.391 520.204 146.622 525.932 146.838C534.782 147.193 543.944 147.532 552.878 148.087L554.102 148.072Z" fill="#E2E2E2"/>
<path d="M1034.75 98.5296C1042.22 94.072 1036.97 83.6298 1036.57 82.8586L1031.98 75.8715C1029.98 77.3937 1027.87 78.6792 1025.69 79.7121C1023.1 80.9378 1020.46 81.9678 1017.77 82.7969C1012.41 84.481 1006.95 85.6767 1001.45 86.3753C994.596 87.2602 987.706 87.6875 980.813 87.6555C977.079 87.6555 973.284 87.563 969.19 87.3625C968.974 87.3625 968.757 87.3625 968.517 87.3625C958.287 86.7918 947.564 85.527 935.748 83.5219C926.322 81.8252 916.223 80.6992 903.062 79.8663C889.902 79.0334 876.069 78.6632 860.242 78.6632C855.74 78.6632 851.032 78.6632 845.989 78.6632H844.152C843.576 78.6632 842.951 78.6632 842.363 78.6632C840.742 78.6632 839.085 78.6632 837.379 78.6632C835.122 78.6632 832.853 78.7712 830.547 78.8329C812.655 79.2494 793.323 80.0206 771.709 81.2082C717.373 84.2931 663.41 88.6272 605.136 94.1954H604.98C600.353 94.6272 595.698 95.0797 591.014 95.5527C590.282 95.5527 589.549 95.6761 588.829 95.7686C563.336 98.2519 537.003 100.951 509.385 103.82L443.858 111.054L427.708 112.781C411.509 114.555 394.794 116.36 378.307 117.702C367.692 118.535 355.36 119.398 343.22 119.398C334.86 119.425 326.504 118.91 318.184 117.856C317.908 117.856 317.632 117.856 317.367 117.763C317.103 117.671 316.803 117.763 316.539 117.64C315.194 117.47 313.861 117.285 312.552 117.069L307.629 116.298L298.887 114.895C298.613 114.877 298.341 114.836 298.071 114.771C297.795 114.771 297.531 114.771 297.254 114.679C291.491 113.784 285.691 113.013 279.915 112.442C275.004 111.949 269.828 111.532 264.305 111.177C260.991 110.961 257.568 110.776 254.014 110.638L247.062 110.344C237.779 110.067 228.029 109.882 218.099 109.882H214.208C203.287 110.037 192.38 110.943 181.535 112.596C159.8 115.931 138.331 121.67 117.365 129.748C96.3924 137.811 75.8749 147.711 55.9566 159.378C45.954 165.224 36.0476 171.501 26.5133 178.041C16.3187 185.09 7.96119 191.26 0.456285 197.506C-0.264186 198.108 -1.3117e-05 199.218 0.324199 200.021L0.384238 200.144C0.620358 200.594 0.922094 200.982 1.27282 201.285C2.26952 201.878 3.37108 202.119 4.46427 201.983C5.55745 201.848 6.60281 201.341 7.49289 200.514C9.79839 198.71 12.296 196.782 15.0939 194.699C19.6448 191.306 24.3999 187.928 29.2631 184.612C38.7133 178.134 48.4757 171.949 58.3942 166.226C78.083 154.758 98.3596 145.034 119.082 137.121C139.724 129.21 160.861 123.61 182.255 120.386C192.903 118.807 203.61 117.963 214.328 117.856H216.538C226.576 117.856 236.795 118.072 246.953 118.504L251.937 118.72H252.969C262.696 119.229 271.389 119.892 279.387 120.771C285.391 121.404 291.25 122.314 297.242 123.208C297.519 123.208 297.783 123.208 298.059 123.332C300.268 123.671 302.502 124.057 304.759 124.427L306.608 124.735L310.775 125.445L311.772 125.599C322.497 127.345 333.298 128.206 344.109 128.175H345.466C357.654 128.175 369.662 127.388 378.74 126.725C395.31 125.476 411.989 123.81 428.128 122.098L444.483 120.555L510.021 114.139C551.749 110.098 595.866 106.257 641.099 102.725C691.808 98.7146 733.44 96.1851 772.105 94.5193C796.385 93.5013 817.735 92.9769 837.524 92.7918H846.626C862.032 92.7918 875.444 93.054 887.68 93.6864C892.772 93.9177 897.695 94.2108 902.486 94.5656C908.358 94.982 913.581 95.5219 918.445 96.108C921.194 96.4473 923.836 96.8329 926.322 97.1877L934.187 98.5913C944.441 100.643 955.513 102.324 967.989 103.774C968.052 103.79 968.118 103.79 968.181 103.774H968.361C971.087 104.051 973.861 104.298 976.575 104.514C979.925 104.776 982.675 104.946 985.28 105.069C988.122 105.193 990.976 105.254 993.842 105.254C996.916 105.254 999.986 105.188 1003.05 105.054C1006.14 104.9 1009.26 104.607 1012.21 104.252C1015.55 103.913 1018.64 103.404 1021.68 102.71C1025.04 101.997 1028.37 101.029 1031.64 99.8098C1032.72 99.5464 1033.76 99.1166 1034.75 98.5296Z" fill="#E2E2E2"/>
</g>
<defs>
<clipPath id="clip0_9_410">
<rect width="1040" height="246" fill="white"/>
</clipPath>
</defs>
</svg>
